<svg xmlns="http://www.w3.org/2000/svg" xmlns:xlink="http://www.w3.org/1999/xlink" contentStyleType="text/css" data-diagram-type="CLASS" height="365px" preserveAspectRatio="none" style="width:2706px;height:365px;background:#FFFFFF;" version="1.1" viewBox="0 0 2706 365" width="2706px" zoomAndPan="magnify"><defs/><g><!--class object--><g class="entity" data-entity="object" data-source-line="2" data-uid="ent0002" id="entity_object"><rect fill="#F1F1F1" height="64.2969" rx="2.5" ry="2.5" style="stroke:#181818;stroke-width:0.5;" width="87.0654" x="1043" y="294"/><ellipse cx="1063.3657" cy="310" fill="#ADD1B2" rx="11" ry="11" style="stroke:#181818;stroke-width:1;"/><path d="M1066.3345,315.6406 Q1065.7563,315.9375 1065.1157,316.0781 Q1064.4751,316.2344 1063.772,316.2344 Q1061.272,316.2344 1059.9438,314.5938 Q1058.6313,312.9375 1058.6313,309.8125 Q1058.6313,306.6875 1059.9438,305.0313 Q1061.272,303.375 1063.772,303.375 Q1064.4751,303.375 1065.1157,303.5313 Q1065.772,303.6875 1066.3345,303.9844 L1066.3345,306.7031 Q1065.7095,306.125 1065.1157,305.8594 Q1064.522,305.5781 1063.897,305.5781 Q1062.5532,305.5781 1061.8657,306.6563 Q1061.1782,307.7188 1061.1782,309.8125 Q1061.1782,311.9063 1061.8657,312.9844 Q1062.5532,314.0469 1063.897,314.0469 Q1064.522,314.0469 1065.1157,313.7813 Q1065.7095,313.5 1066.3345,312.9219 L1066.3345,315.6406 Z " fill="#000000"/><text fill="#000000" font-family="sans-serif" font-size="14" lengthAdjust="spacing" textLength="43.1416" x="1078.5581" y="314.8467">object</text><line style="stroke:#181818;stroke-width:0.5;" x1="1044" x2="1129.0654" y1="326" y2="326"/><line style="stroke:#181818;stroke-width:0.5;" x1="1044" x2="1129.0654" y1="334" y2="334"/><ellipse cx="1054" cy="347.6484" fill="#84BE84" rx="3" ry="3" style="stroke:#038048;stroke-width:1;"/><text fill="#000000" font-family="sans-serif" font-size="14" lengthAdjust="spacing" textLength="61.0654" x="1063" y="350.9951">__init__()</text></g><!--class filter--><g class="entity" data-entity="filter" data-source-line="7" data-uid="ent0003" id="entity_filter"><rect fill="#F1F1F1" height="178.375" rx="2.5" ry="2.5" style="stroke:#181818;stroke-width:0.5;" width="314.9072" x="7" y="31.5"/><ellipse cx="143.9204" cy="47.5" fill="#ADD1B2" rx="11" ry="11" style="stroke:#181818;stroke-width:1;"/><path d="M146.8892,53.1406 Q146.311,53.4375 145.6704,53.5781 Q145.0298,53.7344 144.3267,53.7344 Q141.8267,53.7344 140.4985,52.0938 Q139.186,50.4375 139.186,47.3125 Q139.186,44.1875 140.4985,42.5313 Q141.8267,40.875 144.3267,40.875 Q145.0298,40.875 145.6704,41.0313 Q146.3267,41.1875 146.8892,41.4844 L146.8892,44.2031 Q146.2642,43.625 145.6704,43.3594 Q145.0767,43.0781 144.4517,43.0781 Q143.1079,43.0781 142.4204,44.1563 Q141.7329,45.2188 141.7329,47.3125 Q141.7329,49.4063 142.4204,50.4844 Q143.1079,51.5469 144.4517,51.5469 Q145.0767,51.5469 145.6704,51.2813 Q146.2642,51 146.8892,50.4219 L146.8892,53.1406 Z " fill="#000000"/><text fill="#000000" font-family="sans-serif" font-size="14" lengthAdjust="spacing" textLength="32.5664" x="164.4204" y="52.3467">filter</text><line style="stroke:#181818;stroke-width:0.5;" x1="8" x2="320.9072" y1="63.5" y2="63.5"/><rect fill="none" height="6" style="stroke:#C82930;stroke-width:1;" width="6" x="15" y="74.1484"/><text fill="#000000" font-family="sans-serif" font-size="14" lengthAdjust="spacing" textLength="108.8623" x="27" y="80.4951">func: PyObject*</text><rect fill="none" height="6" style="stroke:#C82930;stroke-width:1;" width="6" x="15" y="90.4453"/><text fill="#000000" font-family="sans-serif" font-size="14" lengthAdjust="spacing" textLength="87.8691" x="27" y="96.792">it: PyObject*</text><line style="stroke:#181818;stroke-width:1;" x1="8" x2="320.9072" y1="104.0938" y2="104.0938"/><ellipse cx="18" cy="117.7422" fill="#84BE84" rx="3" ry="3" style="stroke:#038048;stroke-width:1;"/><text fill="#000000" font-family="sans-serif" font-size="14" lengthAdjust="spacing" textLength="288.9072" x="27" y="121.0889">__new__(func: PyObject*, seq: PyObject*)</text><rect fill="#F24D5C" height="6" style="stroke:#C82930;stroke-width:1;" width="6" x="15" y="131.0391"/><text fill="#000000" font-family="sans-serif" font-size="14" lengthAdjust="spacing" textLength="89.0449" x="27" y="137.3857">__dealloc__()</text><rect fill="#F24D5C" height="6" style="stroke:#C82930;stroke-width:1;" width="6" x="15" y="147.3359"/><text fill="#000000" font-family="sans-serif" font-size="14" lengthAdjust="spacing" textLength="272.9932" x="27" y="153.6826">__traverse__(visit: visitproc, arg: void*)</text><ellipse cx="18" cy="166.6328" fill="#84BE84" rx="3" ry="3" style="stroke:#038048;stroke-width:1;"/><text fill="#000000" font-family="sans-serif" font-size="14" lengthAdjust="spacing" textLength="104.4053" x="27" y="169.9795">__iter__(): filter</text><ellipse cx="18" cy="182.9297" fill="#84BE84" rx="3" ry="3" style="stroke:#038048;stroke-width:1;"/><text fill="#000000" font-family="sans-serif" font-size="14" lengthAdjust="spacing" textLength="148.6748" x="27" y="186.2764">__next__(): PyObject*</text><ellipse cx="18" cy="199.2266" fill="#84BE84" rx="3" ry="3" style="stroke:#038048;stroke-width:1;"/><text fill="#000000" font-family="sans-serif" font-size="14" lengthAdjust="spacing" textLength="165.8535" x="27" y="202.5732">__reduce__(): PyObject*</text></g><!--class map--><g class="entity" data-entity="map" data-source-line="20" data-uid="ent0004" id="entity_map"><rect fill="#F1F1F1" height="210.9688" rx="2.5" ry="2.5" style="stroke:#181818;stroke-width:0.5;" width="498.7734" x="837" y="15"/><ellipse cx="1066.585" cy="31" fill="#ADD1B2" rx="11" ry="11" style="stroke:#181818;stroke-width:1;"/><path d="M1069.5537,36.6406 Q1068.9756,36.9375 1068.335,37.0781 Q1067.6943,37.2344 1066.9912,37.2344 Q1064.4912,37.2344 1063.1631,35.5938 Q1061.8506,33.9375 1061.8506,30.8125 Q1061.8506,27.6875 1063.1631,26.0313 Q1064.4912,24.375 1066.9912,24.375 Q1067.6943,24.375 1068.335,24.5313 Q1068.9912,24.6875 1069.5537,24.9844 L1069.5537,27.7031 Q1068.9287,27.125 1068.335,26.8594 Q1067.7412,26.5781 1067.1162,26.5781 Q1065.7725,26.5781 1065.085,27.6563 Q1064.3975,28.7188 1064.3975,30.8125 Q1064.3975,32.9063 1065.085,33.9844 Q1065.7725,35.0469 1067.1162,35.0469 Q1067.7412,35.0469 1068.335,34.7813 Q1068.9287,34.5 1069.5537,33.9219 L1069.5537,36.6406 Z " fill="#000000"/><text fill="#000000" font-family="sans-serif" font-size="14" lengthAdjust="spacing" textLength="31.1035" x="1087.085" y="35.8467">map</text><line style="stroke:#181818;stroke-width:0.5;" x1="838" x2="1334.7734" y1="47" y2="47"/><rect fill="none" height="6" style="stroke:#C82930;stroke-width:1;" width="6" x="845" y="57.6484"/><text fill="#000000" font-family="sans-serif" font-size="14" lengthAdjust="spacing" textLength="109.5322" x="857" y="63.9951">iters: PyObject*</text><rect fill="none" height="6" style="stroke:#C82930;stroke-width:1;" width="6" x="845" y="73.9453"/><text fill="#000000" font-family="sans-serif" font-size="14" lengthAdjust="spacing" textLength="108.8623" x="857" y="80.292">func: PyObject*</text><rect fill="none" height="6" style="stroke:#C82930;stroke-width:1;" width="6" x="845" y="90.2422"/><text fill="#000000" font-family="sans-serif" font-size="14" lengthAdjust="spacing" textLength="63.0342" x="857" y="96.5889">strict: int</text><line style="stroke:#181818;stroke-width:1;" x1="838" x2="1334.7734" y1="103.8906" y2="103.8906"/><ellipse cx="848" cy="117.5391" fill="#84BE84" rx="3" ry="3" style="stroke:#038048;stroke-width:1;"/><text fill="#000000" font-family="sans-serif" font-size="14" lengthAdjust="spacing" textLength="472.7734" x="857" y="120.8857">__new__(func: PyObject*, *iterables: PyObject*, strict: bool = False)</text><rect fill="#F24D5C" height="6" style="stroke:#C82930;stroke-width:1;" width="6" x="845" y="130.8359"/><text fill="#000000" font-family="sans-serif" font-size="14" lengthAdjust="spacing" textLength="89.0449" x="857" y="137.1826">__dealloc__()</text><rect fill="#F24D5C" height="6" style="stroke:#C82930;stroke-width:1;" width="6" x="845" y="147.1328"/><text fill="#000000" font-family="sans-serif" font-size="14" lengthAdjust="spacing" textLength="272.9932" x="857" y="153.4795">__traverse__(visit: visitproc, arg: void*)</text><ellipse cx="848" cy="166.4297" fill="#84BE84" rx="3" ry="3" style="stroke:#038048;stroke-width:1;"/><text fill="#000000" font-family="sans-serif" font-size="14" lengthAdjust="spacing" textLength="102.9424" x="857" y="169.7764">__iter__(): map</text><ellipse cx="848" cy="182.7266" fill="#84BE84" rx="3" ry="3" style="stroke:#038048;stroke-width:1;"/><text fill="#000000" font-family="sans-serif" font-size="14" lengthAdjust="spacing" textLength="148.6748" x="857" y="186.0732">__next__(): PyObject*</text><ellipse cx="848" cy="199.0234" fill="#84BE84" rx="3" ry="3" style="stroke:#038048;stroke-width:1;"/><text fill="#000000" font-family="sans-serif" font-size="14" lengthAdjust="spacing" textLength="165.8535" x="857" y="202.3701">__reduce__(): PyObject*</text><ellipse cx="848" cy="215.3203" fill="#84BE84" rx="3" ry="3" style="stroke:#038048;stroke-width:1;"/><text fill="#000000" font-family="sans-serif" font-size="14" lengthAdjust="spacing" textLength="255.4316" x="857" y="218.667">__setstate__(state: PyObject*): None</text></g><!--class zip--><g class="entity" data-entity="zip" data-source-line="35" data-uid="ent0005" id="entity_zip"><rect fill="#F1F1F1" height="227.2656" rx="2.5" ry="2.5" style="stroke:#181818;stroke-width:0.5;" width="381.0107" x="1845" y="7"/><ellipse cx="2021.1929" cy="23" fill="#ADD1B2" rx="11" ry="11" style="stroke:#181818;stroke-width:1;"/><path d="M2024.1616,28.6406 Q2023.5835,28.9375 2022.9429,29.0781 Q2022.3022,29.2344 2021.5991,29.2344 Q2019.0991,29.2344 2017.771,27.5938 Q2016.4585,25.9375 2016.4585,22.8125 Q2016.4585,19.6875 2017.771,18.0313 Q2019.0991,16.375 2021.5991,16.375 Q2022.3022,16.375 2022.9429,16.5313 Q2023.5991,16.6875 2024.1616,16.9844 L2024.1616,19.7031 Q2023.5366,19.125 2022.9429,18.8594 Q2022.3491,18.5781 2021.7241,18.5781 Q2020.3804,18.5781 2019.6929,19.6563 Q2019.0054,20.7188 2019.0054,22.8125 Q2019.0054,24.9063 2019.6929,25.9844 Q2020.3804,27.0469 2021.7241,27.0469 Q2022.3491,27.0469 2022.9429,26.7813 Q2023.5366,26.5 2024.1616,25.9219 L2024.1616,28.6406 Z " fill="#000000"/><text fill="#000000" font-family="sans-serif" font-size="14" lengthAdjust="spacing" textLength="20.125" x="2041.6929" y="27.8467">zip</text><line style="stroke:#181818;stroke-width:0.5;" x1="1846" x2="2225.0107" y1="39" y2="39"/><rect fill="none" height="6" style="stroke:#C82930;stroke-width:1;" width="6" x="1853" y="49.6484"/><text fill="#000000" font-family="sans-serif" font-size="14" lengthAdjust="spacing" textLength="142.7207" x="1865" y="55.9951">tuplesize: Py_ssize_t</text><rect fill="none" height="6" style="stroke:#C82930;stroke-width:1;" width="6" x="1853" y="65.9453"/><text fill="#000000" font-family="sans-serif" font-size="14" lengthAdjust="spacing" textLength="123.6211" x="1865" y="72.292">ittuple: PyObject*</text><rect fill="none" height="6" style="stroke:#C82930;stroke-width:1;" width="6" x="1853" y="82.2422"/><text fill="#000000" font-family="sans-serif" font-size="14" lengthAdjust="spacing" textLength="118.4053" x="1865" y="88.5889">result: PyObject*</text><rect fill="none" height="6" style="stroke:#C82930;stroke-width:1;" width="6" x="1853" y="98.5391"/><text fill="#000000" font-family="sans-serif" font-size="14" lengthAdjust="spacing" textLength="63.0342" x="1865" y="104.8857">strict: int</text><line style="stroke:#181818;stroke-width:1;" x1="1846" x2="2225.0107" y1="112.1875" y2="112.1875"/><ellipse cx="1856" cy="125.8359" fill="#84BE84" rx="3" ry="3" style="stroke:#038048;stroke-width:1;"/><text fill="#000000" font-family="sans-serif" font-size="14" lengthAdjust="spacing" textLength="355.0107" x="1865" y="129.1826">__new__(*iterables: PyObject*, strict: bool = False)</text><rect fill="#F24D5C" height="6" style="stroke:#C82930;stroke-width:1;" width="6" x="1853" y="139.1328"/><text fill="#000000" font-family="sans-serif" font-size="14" lengthAdjust="spacing" textLength="89.0449" x="1865" y="145.4795">__dealloc__()</text><rect fill="#F24D5C" height="6" style="stroke:#C82930;stroke-width:1;" width="6" x="1853" y="155.4297"/><text fill="#000000" font-family="sans-serif" font-size="14" lengthAdjust="spacing" textLength="272.9932" x="1865" y="161.7764">__traverse__(visit: visitproc, arg: void*)</text><ellipse cx="1856" cy="174.7266" fill="#84BE84" rx="3" ry="3" style="stroke:#038048;stroke-width:1;"/><text fill="#000000" font-family="sans-serif" font-size="14" lengthAdjust="spacing" textLength="91.9639" x="1865" y="178.0732">__iter__(): zip</text><ellipse cx="1856" cy="191.0234" fill="#84BE84" rx="3" ry="3" style="stroke:#038048;stroke-width:1;"/><text fill="#000000" font-family="sans-serif" font-size="14" lengthAdjust="spacing" textLength="148.6748" x="1865" y="194.3701">__next__(): PyObject*</text><ellipse cx="1856" cy="207.3203" fill="#84BE84" rx="3" ry="3" style="stroke:#038048;stroke-width:1;"/><text fill="#000000" font-family="sans-serif" font-size="14" lengthAdjust="spacing" textLength="165.8535" x="1865" y="210.667">__reduce__(): PyObject*</text><ellipse cx="1856" cy="223.6172" fill="#84BE84" rx="3" ry="3" style="stroke:#038048;stroke-width:1;"/><text fill="#000000" font-family="sans-serif" font-size="14" lengthAdjust="spacing" textLength="255.4316" x="1865" y="226.9639">__setstate__(state: PyObject*): None</text></g><g class="entity" data-entity="GMN9" data-source-line="57" data-uid="ent0010" id="entity_GMN9"><path d="M357,100.5 L357,116.5 L322.15,120.5 L357,124.5 L357,140.7656 A0,0 0 0 0 357,140.7656 L801.5537,140.7656 A0,0 0 0 0 801.5537,140.7656 L801.5537,110.5 L791.5537,100.5 L357,100.5 A0,0 0 0 0 357,100.5" fill="#FEFFDD" style="stroke:#181818;stroke-width:0.5;"/><path d="M791.5537,100.5 L791.5537,110.5 L801.5537,110.5 L791.5537,100.5" fill="#FEFFDD" style="stroke:#181818;stroke-width:0.5;"/><text fill="#000000" font-family="sans-serif" font-size="13" lengthAdjust="spacing" textLength="423.5537" x="363" y="117.5669">Iterator yielding items from iterable where function(item) is true.</text><text fill="#000000" font-family="sans-serif" font-size="13" lengthAdjust="spacing" textLength="295.6104" x="363" y="132.6997">If function is None, yields items that are true.</text></g><g class="entity" data-entity="GMN12" data-source-line="62" data-uid="ent0013" id="entity_GMN12"><path d="M1371.5,93 L1371.5,116.5 L1336.04,120.5 L1371.5,124.5 L1371.5,148.3984 A0,0 0 0 0 1371.5,148.3984 L1809.1284,148.3984 A0,0 0 0 0 1809.1284,148.3984 L1809.1284,103 L1799.1284,93 L1371.5,93 A0,0 0 0 0 1371.5,93" fill="#FEFFDD" style="stroke:#181818;stroke-width:0.5;"/><path d="M1799.1284,93 L1799.1284,103 L1809.1284,103 L1799.1284,93" fill="#FEFFDD" style="stroke:#181818;stroke-width:0.5;"/><text fill="#000000" font-family="sans-serif" font-size="13" lengthAdjust="spacing" textLength="357.3604" x="1377.5" y="110.0669">Iterator applying function to arguments from iterables.</text><text fill="#000000" font-family="sans-serif" font-size="13" lengthAdjust="spacing" textLength="278.0273" x="1377.5" y="125.1997">Stops when shortest iterable is exhausted.</text><text fill="#000000" font-family="sans-serif" font-size="13" lengthAdjust="spacing" textLength="416.6284" x="1377.5" y="140.3325">Strict mode raises ValueError if iterables have different lengths.</text></g><g class="entity" data-entity="GMN15" data-source-line="68" data-uid="ent0016" id="entity_GMN15"><path d="M2261.5,93 L2261.5,116.5 L2226.28,120.5 L2261.5,124.5 L2261.5,148.3984 A0,0 0 0 0 2261.5,148.3984 L2699.1284,148.3984 A0,0 0 0 0 2699.1284,148.3984 L2699.1284,103 L2689.1284,93 L2261.5,93 A0,0 0 0 0 2261.5,93" fill="#FEFFDD" style="stroke:#181818;stroke-width:0.5;"/><path d="M2689.1284,93 L2689.1284,103 L2699.1284,103 L2689.1284,93" fill="#FEFFDD" style="stroke:#181818;stroke-width:0.5;"/><text fill="#000000" font-family="sans-serif" font-size="13" lengthAdjust="spacing" textLength="304.9478" x="2267.5" y="110.0669">Iterator yielding tuples from multiple iterables.</text><text fill="#000000" font-family="sans-serif" font-size="13" lengthAdjust="spacing" textLength="278.0273" x="2267.5" y="125.1997">Stops when shortest iterable is exhausted.</text><text fill="#000000" font-family="sans-serif" font-size="13" lengthAdjust="spacing" textLength="416.6284" x="2267.5" y="140.3325">Strict mode raises ValueError if iterables have different lengths.</text></g><!--link filter to object--><g class="link" data-entity-1="filter" data-entity-2="object" data-source-line="51" data-uid="lnk6" id="link_filter_object"><path codeLine="51" d="M286.63,209.55 C303.78,219.04 321.66,227.56 339.5,234 C470.84,281.39 885.6689,311.8975 1024.9489,321.0675" fill="none" id="filter-to-object" style="stroke:#181818;stroke-width:1;"/><polygon fill="none" points="1042.91,322.25,1025.3431,315.0804,1024.5547,327.0545,1042.91,322.25" style="stroke:#181818;stroke-width:1;"/></g><!--link map to object--><g class="link" data-entity-1="map" data-entity-2="object" data-source-line="52" data-uid="lnk7" id="link_map_object"><path codeLine="52" d="M1086.5,226.23 C1086.5,250.97 1086.5,257.47 1086.5,275.88" fill="none" id="map-to-object" style="stroke:#181818;stroke-width:1;"/><polygon fill="none" points="1086.5,293.88,1092.5,275.88,1080.5,275.88,1086.5,293.88" style="stroke:#181818;stroke-width:1;"/></g><!--link zip to object--><g class="link" data-entity-1="zip" data-entity-2="object" data-source-line="53" data-uid="lnk8" id="link_zip_object"><path codeLine="53" d="M1844.86,228.02 C1839.06,230.16 1833.27,232.16 1827.5,234 C1572.53,315.39 1264.7498,324.605 1148.2998,325.155" fill="none" id="zip-to-object" style="stroke:#181818;stroke-width:1;"/><polygon fill="none" points="1130.3,325.24,1148.3281,331.1549,1148.2715,319.1551,1130.3,325.24" style="stroke:#181818;stroke-width:1;"/></g><!--SRC=[pLJ1RjH03BtdAtnhjtJvW9NW14XS2X8IrsWsSJP6avamTjfk2_-EFSdkPbCG0Y7WaiHs_EQzDvwvW5VOK42G5c7h625kFs4bK7d7NEJd8VLO03mhImeaPNcvAhuMnSMylI4lcCuwfvHrhfiXL1jult-NqQuiHR98hCSb0jxf2ek6Qs3yF8jNrb2MDJhlOvKPvOGaTuk9KJEtnBP4VlKfLjVWqaxZI7LkDpNAptet4zS3WNiPitDwMaXO3nKkIqidEjUVsM3nuoXOcIqqVySNbaIL4gSWFtVboa3TrYEVcpLXR6Fqy0BUEC_uforJNR_bLoun2eiJA-RtV6itS1C3Fl7rWSvzjJZxAaEl-kaXWvHiNwMCXkVImj-4F7Zv1TF_eSUgyQzvJA75HE92XP3GEw4OkAMUY-aWhzTVNaxNGM53FOzjC-Qnmjv4GIw2FY7HhXM8pUcOlJLB9IRO4_gQmWvKTATtHeeT7Fo6EsMaLuiElP6vj5zMG0oI1dnkACsnQ6cJT3qYyeGdhHCr6ASM33KOesB1Qvpb8odNztvlf8xe4csRXWw3B4Yo4VaWiMUZ6u3Rc5Iud5GeCxnltS22zVYp3GvqiLO6ZXWPFZe_uEkKT6rgJj3GwjX0JKsZFWG1Zs4dBVzOnpWlJyqTZyX8lDFffzvu_GyAlW40]--></g></svg>